<?xml version="1.0" standalone="no"?><!DOCTYPE svg PUBLIC "-//W3C//DTD SVG 1.1//EN" "http://www.w3.org/Graphics/SVG/1.1/DTD/svg11.dtd"><svg t="1690428254453" class="icon" viewBox="0 0 1025 1024" version="1.1" xmlns="http://www.w3.org/2000/svg" p-id="850" width="200.1953125" height="200" xmlns:xlink="http://www.w3.org/1999/xlink"><path d="M795.136 148.992l-2.56 2.56-20.992-20.992c-20.48-20.48-53.248-20.48-73.216 0l-10.752 10.752-29.696-29.696c-20.48-20.48-53.248-20.48-73.216 0l-61.44 61.44c-20.48 20.48-20.48 53.248 0 73.216l87.552 87.552-274.432 274.432-87.552-87.552c-20.48-20.48-53.248-20.48-73.216 0l-61.44 61.44c-20.48 20.48-20.48 53.248 0 73.216l29.696 29.696-10.752 10.752c-20.48 20.48-20.48 53.248 0 73.216l20.992 20.992-4.608 4.608c-20.992 20.992-20.992 54.784 0 75.776 20.992 20.992 54.784 20.992 75.776 0l4.608-4.608 20.992 20.992c20.48 20.48 53.248 20.48 73.216 0l10.752-10.752 29.696 29.696c20.48 20.48 53.248 20.48 73.216 0l61.44-61.44c20.48-20.48 20.48-53.248 0-73.216l-87.552-87.552L686.08 409.088 773.632 496.64c20.48 20.48 53.248 20.48 73.216 0l61.44-61.44c20.48-20.48 20.48-53.248 0-73.216l-29.696-29.696 10.752-10.752c20.48-20.48 20.48-53.248 0-73.216l-20.992-20.992 2.56-2.56c20.992-20.992 20.992-54.784 0-75.776-20.992-20.992-54.784-20.992-75.776 0z" fill="#1296db" p-id="851"></path></svg>